<?xml version="1.0" encoding="utf-8"?>
<svg width="182px" height="48px" viewBox="0 0 182 48" version="1.1" xmlns:xlink="http://www.w3.org/1999/xlink" xmlns="http://www.w3.org/2000/svg">
  <desc>Created with Lunacy</desc>
  <defs>
    <path d="M0 0L31.5728 0L31.5728 10.7935L0 10.7935L0 0Z" transform="translate(0 0.2062885)" id="path_1" />
    <clipPath id="mask_1">
      <use xlink:href="#path_1" />
    </clipPath>
  </defs>
  <g id="logo-ok">
    <path d="M6.6174 35.1153C4.2314 34.8263 2.0994 33.6253 0.614402 31.7333C-0.368598 30.4783 -0.148598 28.6633 1.1064 27.6803C2.3614 26.6973 4.1754 26.9163 5.1584 28.1703C5.6914 28.8493 6.4544 29.2803 7.3114 29.3833C8.1644 29.4873 9.0124 29.2503 9.6914 28.7183C10.3694 28.1863 10.8004 27.4223 10.9044 26.5663C11.0074 25.7093 10.7724 24.8653 10.2394 24.1863L2.6924 14.5613C-0.370598 10.6563 0.315402 4.98632 4.2204 1.92332C7.2844 -0.479683 11.5194 -0.645683 14.7594 1.50832C16.0874 2.39032 16.4474 4.18232 15.5654 5.51032C14.6824 6.83732 12.8904 7.19832 11.5634 6.31632C10.4024 5.54432 8.8824 5.60432 7.7834 6.46632C6.3824 7.56532 6.1364 9.59832 7.2354 10.9983L14.7824 20.6233C16.2664 22.5153 16.9244 24.8723 16.6354 27.2593C16.3474 29.6463 15.1464 31.7783 13.2534 33.2613C11.6534 34.5173 9.7194 35.1813 7.7164 35.1813C7.3524 35.1813 6.9854 35.1603 6.6174 35.1153Z" transform="translate(7.949097 0)" id="Fill-1" fill="#162761" stroke="none" />
    <g id="Group-5" transform="translate(0 37)">
      <path d="M0 0L31.5728 0L31.5728 10.7935L0 10.7935L0 0Z" transform="translate(0 0.2062885)" id="Clip-4" fill="none" stroke="none" />
      <g clip-path="url(#mask_1)">
        <path d="M15.7468 10.7935C10.3328 10.7935 4.91976 8.74151 0.786765 4.63351C-0.257235 3.59551 -0.263235 1.90851 0.774765 0.864512C1.81176 -0.179488 3.50076 -0.184488 4.54376 0.854512C10.7578 7.03051 20.8408 7.00051 27.0178 0.785512C28.0568 -0.257488 29.7438 -0.262488 30.7868 0.774512C31.8308 1.81351 31.8358 3.49951 30.7978 4.54351C26.6568 8.70851 21.2018 10.7935 15.7468 10.7935" transform="translate(-0.0002645893 0.2062885)" id="Fill-3" fill="#FFFFFF" stroke="none" />
      </g>
    </g>
    <path d="M26.648 7.928C26.65 5.255 26.185 3.36 25.253 2.243C24.322 1.126 22.814 0.568 20.73 0.566C18.89 0.565 17.123 1.484 15.429 3.323L15.356 3.396C15.306 3.396 15.283 3.371 15.283 3.323C14.718 2.291 14.106 1.574 13.444 1.169C12.782 0.764 11.887 0.561 10.759 0.56C8.968 0.559 7.373 1.427 5.966 3.144C5.969 3.091 5.974 3.038 5.974 2.985C5.974 1.336 4.638 0 2.99 0C2.16 0 1.409 0.339 0.868 0.886C0.333 1.41 0 2.14 0 2.948C0 3.042 0.004 3.135 0.013 3.227L0.004 17.955C0.004 17.971 0.008 17.986 0.008 18C0.007 18.029 0.004 18.056 0.004 18.084C0.004 19.734 1.34 21.07 2.99 21.07C4.638 21.07 5.974 19.734 5.974 18.084C5.974 18.021 5.969 17.959 5.965 17.897L5.972 7.07C5.972 6.627 6.242 6.174 6.782 5.708C7.321 5.243 7.874 5.01 8.438 5.01C9.248 5.011 9.794 5.227 10.075 5.656C10.356 6.085 10.497 6.961 10.497 8.286L10.49 17.962C10.49 17.989 10.497 18.012 10.498 18.037C10.496 18.08 10.491 18.122 10.491 18.166C10.491 19.772 11.793 21.074 13.398 21.074C15.003 21.074 16.304 19.772 16.304 18.166C16.304 18.119 16.299 18.074 16.297 18.027C16.298 18.006 16.303 17.988 16.303 17.966L16.31 7.075C16.311 6.634 16.575 6.181 17.102 5.715C17.629 5.25 18.175 5.017 18.74 5.017C19.549 5.018 20.101 5.233 20.395 5.661C20.689 6.092 20.836 6.968 20.835 8.292L20.829 17.969C20.829 18.006 20.837 18.04 20.838 18.077C20.838 18.107 20.835 18.136 20.835 18.166C20.835 19.772 22.136 21.074 23.742 21.074C25.347 21.074 26.648 19.772 26.648 18.166C26.648 18.109 26.643 18.052 26.64 17.995C26.64 17.988 26.642 17.981 26.642 17.973L26.648 7.928Z" transform="translate(28.92471 12.78564)" id="Fill-6" fill="#162761" stroke="none" />
    <path d="M6.259 3.124C6.259 1.399 4.86 0 3.135 0C1.409 0 0.00999999 1.399 0.00999999 3.124C0.00999999 3.178 0.016 3.23 0.019 3.283C0.018 3.295 0.015 3.306 0.015 3.318L0 26.717C0 26.813 0.015 26.903 0.027 26.994L0.027 27C0.034 27.059 0.041 27.119 0.054 27.175C0.292 28.663 1.579 29.802 3.135 29.802C4.86 29.802 6.259 28.404 6.259 26.678C6.259 26.647 6.256 26.618 6.255 26.586L6.27 3.322C6.27 3.274 6.259 3.23 6.256 3.183C6.257 3.163 6.259 3.144 6.259 3.124Z" transform="translate(70.4046 4.053223)" id="Fill-8" fill="#162761" stroke="none" />
    <path d="M9.69829e-06 10.182C0.0020097 6.88701 0.82701 4.36501 2.47601 2.61801C4.12401 0.87101 6.50901 -0.00198975 9.62801 1.02506e-05C15.614 0.00401025 18.656 3.27701 18.753 9.81701C18.753 10.42 18.52 10.93 18.054 11.344C17.588 11.759 17.054 11.966 16.449 11.965L6.37501 11.959C6.12401 11.958 6.02401 12.072 6.07301 12.299C6.27401 13.682 6.80801 14.67 7.67501 15.262C8.54301 15.854 9.84401 16.15 11.58 16.151C12.446 16.152 13.364 16.056 14.334 15.864C14.517 15.813 14.708 15.784 14.907 15.784C16.066 15.784 17.004 16.723 17.004 17.881C17.004 18.941 16.217 19.807 15.196 19.948L15.199 19.964C13.74 20.239 12.231 20.377 10.671 20.376C7.25001 20.374 4.61601 19.504 2.76801 17.768C0.92101 16.03 -0.0019903 13.502 9.69829e-06 10.182ZM6.07601 8.03401C6.07601 8.23701 6.16401 8.33701 6.34001 8.33701L12.717 8.34101C12.944 8.34101 13.056 8.22801 13.057 8.00101C12.957 5.41101 11.852 4.11401 9.73801 4.11201C8.60701 4.11201 7.75101 4.40701 7.17301 4.99801C6.59301 5.58901 6.22801 6.60101 6.07601 8.03401Z" transform="translate(80.55591 13.31787)" id="Fill-10" fill="#162761" fill-rule="evenodd" stroke="none" />
    <path d="M2.077 0.291023C3.771 0.0950228 5.376 -0.000977158 6.898 2.28419e-05C10.159 0.00202284 12.648 0.696023 14.365 2.08302C16.081 3.46902 16.939 5.45102 16.937 8.02602C16.936 10.724 16.069 12.803 14.339 14.26C12.609 15.719 10.125 16.447 6.888 16.445C5.489 16.444 3.907 16.357 2.141 16.184C1.944 16.184 1.847 16.283 1.847 16.478L1.84 26.302C1.84 26.572 1.754 26.794 1.582 26.965C1.41 27.136 1.189 27.221 0.92 27.221C0.649 27.221 0.429 27.135 0.258 26.964C0.086 26.793 0 26.571 0 26.302L0.016 2.68002C0.016 2.06802 0.206 1.53402 0.587 1.08002C0.968 0.627023 1.464 0.364023 2.077 0.291023ZM2.142 14.602C3.711 14.801 5.244 14.899 6.741 14.9C9.439 14.902 11.512 14.32 12.96 13.156C14.407 11.992 15.133 10.331 15.134 8.17302C15.135 6.01402 14.425 4.37702 13.003 3.26002C11.581 2.14202 9.496 1.58302 6.749 1.58102C5.081 1.58002 3.549 1.70202 2.15 1.94602C1.953 1.99602 1.856 2.11802 1.856 2.31402L1.848 14.234C1.848 14.431 1.945 14.553 2.142 14.602Z" transform="translate(128.7318 5.686523)" id="Fill-12" fill="#162761" fill-rule="evenodd" stroke="none" />
    <path d="M1.63001 1.00901C1.67701 0.989009 1.72401 0.969009 1.77601 0.953009C3.73801 0.316009 5.72501 -0.000990632 7.73601 9.36768e-06C10.262 0.00200937 12.034 0.488009 13.052 1.45701C14.069 2.42601 14.577 4.11301 14.576 6.51601L14.568 18.658C14.567 18.903 14.488 19.106 14.328 19.265C14.168 19.424 13.966 19.504 13.721 19.504C13.475 19.504 13.273 19.424 13.114 19.264C12.954 19.105 12.875 18.902 12.875 18.657L12.877 15.787C12.877 15.763 12.865 15.751 12.84 15.751C12.79 15.751 12.767 15.763 12.767 15.787C12.078 17.062 11.11 18.061 9.85901 18.784C8.60701 19.506 7.17201 19.868 5.55201 19.867C3.86101 19.866 2.51101 19.356 1.50701 18.337C0.501006 17.319 -0.000994062 15.951 5.93766e-06 14.234C0.00100594 13.327 0.167006 12.499 0.499006 11.751C0.830006 11.003 1.37001 10.298 2.11901 9.63601C2.86801 8.97401 3.94701 8.46001 5.35801 8.09201C6.76801 7.72501 8.45401 7.54301 10.417 7.54501L12.478 7.54601C12.699 7.54601 12.809 7.43501 12.809 7.21401L12.81 6.14701C12.811 4.45501 12.437 3.26501 11.69 2.57801C10.942 1.89101 9.62301 1.54701 7.73501 1.54601C5.98301 1.54501 4.25001 1.80401 2.53501 2.32401L2.53701 2.32701L1.83701 2.59801C1.43801 2.75401 0.983006 2.55301 0.827006 2.15301C0.672006 1.75401 0.872006 1.29801 1.27301 1.14301L1.63001 1.00901ZM10.78 16.32C12.129 14.983 12.805 13.261 12.806 11.151L12.808 9.23801C12.808 9.01701 12.698 8.90701 12.477 8.90701L10.416 8.90601C4.65301 8.90201 1.76901 10.63 1.76701 14.088C1.76601 15.388 2.13901 16.419 2.88701 17.179C3.63501 17.94 4.63401 18.321 5.88501 18.322C7.79801 18.323 9.42901 17.656 10.78 16.32Z" transform="translate(147.9669 13.42578)" id="Fill-14" fill="#162761" fill-rule="evenodd" stroke="none" />
    <path d="M0.174 2.104C0.165 2.124 0.159 2.145 0.151 2.165C0.146 2.186 0.139 2.205 0.133 2.226C0.072 2.395 0.036 2.572 0.023 2.758C0.02 2.792 0.017 2.826 0.014 2.86C0.014 2.874 0.01 2.887 0.01 2.9L0.01 2.938C0.006 3 0 3.062 0 3.124C0 3.186 0.006 3.245 0.01 3.306L0 17.64L0 17.692C0 17.712 0.005 17.73 0.006 17.751C0.064 19.425 1.437 20.765 3.125 20.765C4.685 20.765 5.974 19.621 6.208 18.127C6.214 18.096 6.217 18.062 6.223 18.031C6.229 17.979 6.233 17.927 6.237 17.875C6.242 17.814 6.255 17.758 6.255 17.696L6.264 2.905C6.265 2.57 6.181 2.266 6.031 1.983C5.575 0.823 4.447 0 3.125 0C1.757 0 0.597 0.88 0.174 2.104Z" transform="translate(59.67419 13.09082)" id="Fill-16" fill="#162761" stroke="none" />
    <path d="M6.249 3.124C6.249 1.398 4.851 0 3.125 0C1.399 0 0 1.398 0 3.124C0 4.85 1.399 6.249 3.125 6.249C4.851 6.249 6.249 4.85 6.249 3.124Z" transform="translate(59.67419 4.053711)" id="Fill-18" fill="#162761" stroke="none" />
    <path d="M19.155 22.752L19.151 22.756L21.927 25.745C22.238 26.079 22.218 26.607 21.883 26.917C21.549 27.228 21.022 27.208 20.711 26.873L17.993 23.947L17.768 24.178C15.02 26.457 11.867 27.596 8.311 27.593C5.612 27.592 3.552 27.014 2.13 25.86C0.708004 24.706 -0.00199579 23.076 4.21348e-06 20.965C0.00100421 19.568 0.529004 18.201 1.584 16.865C2.64 15.529 4.419 14.039 6.922 12.397C6.996 12.373 7.032 12.312 7.032 12.213C7.032 12.116 7.008 12.042 6.959 11.993L6.665 11.699C5.292 10.201 4.33 8.95001 3.779 7.94401C3.228 6.93801 2.952 5.91901 2.953 4.88901C2.954 3.41701 3.531 2.23501 4.685 1.34001C5.838 0.446007 7.384 -0.00199333 9.321 6.66671e-06C11.332 0.00100667 12.89 0.432007 13.993 1.29001C15.096 2.15101 15.648 3.34001 15.647 4.86101C15.646 6.16101 15.24 7.35001 14.43 8.42801C13.62 9.50801 12.123 10.794 9.94 12.289C9.768 12.411 9.755 12.546 9.903 12.694L17.145 20.535L18.014 21.493L19.53 19.978C19.856 19.652 20.388 19.652 20.714 19.978C21.039 20.303 21.039 20.835 20.714 21.16L19.14 22.735L19.155 22.752ZM4.75602 4.88982C4.75702 3.88482 5.16802 3.06882 5.99002 2.44482C6.81302 1.81982 7.92202 1.50682 9.32102 1.50782Q11.5275 1.50932 12.705 2.39282C13.489 2.98282 13.881 3.81682 13.88 4.89582C13.88 5.92582 13.554 6.86482 12.904 7.70982C12.253 8.55582 10.909 9.68982 8.87302 11.1108C8.67602 11.2578 8.51702 11.2448 8.39502 11.0738C6.89902 9.45282 5.91902 8.22682 5.45302 7.39182C4.98802 6.55882 4.75502 5.72382 4.75602 4.88982ZM8.38502 26.048C6.30002 26.047 4.68802 25.598 3.54802 24.702C2.40702 23.806 1.83802 22.536 1.83902 20.893Q1.84052 19.201 3.25802 17.491C4.20302 16.351 5.77902 15.046 7.98802 13.576C8.15902 13.428 8.32002 13.453 8.46602 13.65L16.592 22.448C16.714 22.619 16.714 22.767 16.592 22.889C14.31 24.997 11.573 26.05 8.38502 26.048Z" transform="translate(102.5901 5.669434)" id="Fill-20" fill="#162761" fill-rule="evenodd" stroke="none" />
    <g id="Group-24" transform="translate(164 13)">
      <path d="M15.9495 0.0841493L15.9495 0.0841493C15.5245 -0.102851 15.0225 0.0911493 14.8355 0.517149L14.5535 1.15615L14.5495 1.15615L7.99054 17.0091C7.99054 17.0341 7.97754 17.0462 7.95354 17.0462C7.90354 17.0462 7.88054 17.0341 7.88054 17.0091L1.92954 1.18515C1.92354 1.16915 1.91454 1.15415 1.90654 1.13915L1.67954 0.556149C1.50754 0.108149 0.999544 -0.114851 0.552544 0.0591493C0.123544 0.225149 -0.096456 0.699149 0.040544 1.13215C0.045544 1.14915 0.046544 1.16615 0.053544 1.18415L6.88554 18.8482C6.95954 19.0201 6.94554 19.2162 6.84754 19.4371L3.83054 26.3361L3.83454 26.3372C3.65954 26.7521 3.85054 27.2362 4.26454 27.4181C4.68254 27.6012 5.17454 27.4081 5.35654 26.9901L5.49354 26.6791L5.51854 26.6842L6.40854 24.5951L16.0345 1.98815L16.3835 1.19815C16.5705 0.772149 16.3755 0.271149 15.9495 0.0841493" transform="translate(0.870156 0.5006507)" id="Fill-22" fill="#162761" stroke="none" />
    </g>
  </g>
</svg>